<?xml version="1.0" encoding="UTF-8"?>
<svg width="1400" height="1000" xmlns="http://www.w3.org/2000/svg">
  <defs>
    <style>
      .rule-box { fill: #f8f9fa; stroke: #343a40; stroke-width: 2; }
      .currency-rule { fill: #e3f2fd; stroke: #1976d2; }
      .limit-rule { fill: #fff3e0; stroke: #f57c00; }
      .fee-rule { fill: #e8f5e8; stroke: #388e3c; }
      .transaction-rule { fill: #fce4ec; stroke: #c2185b; }
      .security-rule { fill: #f3e5f5; stroke: #7b1fa2; }
      .balance-rule { fill: #fff8e1; stroke: #fbc02d; }
      .rule-text { font-family: Arial, sans-serif; font-size: 11px; fill: #212529; }
      .rule-title { font-family: Arial, sans-serif; font-size: 12px; font-weight: bold; fill: #212529; }
      .category-title { font-family: Arial, sans-serif; font-size: 14px; font-weight: bold; fill: #495057; }
      .dependency-arrow { stroke: #6c757d; stroke-width: 2; fill: none; marker-end: url(#arrowhead); }
      .critical-arrow { stroke: #dc3545; stroke-width: 3; fill: none; marker-end: url(#arrowhead-critical); }
    </style>
    <marker id="arrowhead" markerWidth="10" markerHeight="7" refX="9" refY="3.5" orient="auto">
      <polygon points="0 0, 10 3.5, 0 7" fill="#6c757d" />
    </marker>
    <marker id="arrowhead-critical" markerWidth="10" markerHeight="7" refX="9" refY="3.5" orient="auto">
      <polygon points="0 0, 10 3.5, 0 7" fill="#dc3545" />
    </marker>
  </defs>

  <!-- Title -->
  <text x="700" y="30" text-anchor="middle" class="category-title" font-size="18">OBP-API Business Rules Dependencies</text>
  <text x="700" y="50" text-anchor="middle" class="rule-text" font-size="12">17 Core Business Rules - 6 Categories - Analysis Date: 16-9-2025</text>

  <!-- Currency Exchange & Conversion Rules (Top Left) -->
  <text x="50" y="90" class="category-title">Currency Exchange & Conversion</text>
  
  <!-- BR-001: Fallback Exchange Rate Matrix -->
  <rect x="50" y="100" width="200" height="80" class="rule-box currency-rule" />
  <text x="150" y="120" text-anchor="middle" class="rule-title">BR-001</text>
  <text x="150" y="135" text-anchor="middle" class="rule-text">Fallback Exchange Rate Matrix</text>
  <text x="150" y="150" text-anchor="middle" class="rule-text">14 Currency Support</text>
  <text x="150" y="165" text-anchor="middle" class="rule-text">fx.scala:40-57</text>

  <!-- BR-002: Currency Conversion -->
  <rect x="270" y="100" width="200" height="80" class="rule-box currency-rule" />
  <text x="370" y="120" text-anchor="middle" class="rule-title">BR-002</text>
  <text x="370" y="135" text-anchor="middle" class="rule-text">Currency Conversion Formula</text>
  <text x="370" y="150" text-anchor="middle" class="rule-text">BigDecimal + HALF_UP Rounding</text>
  <text x="370" y="165" text-anchor="middle" class="rule-text">fx.scala:127-130</text>

  <!-- BR-003: Three-Tier Rate Resolution -->
  <rect x="50" y="200" width="200" height="80" class="rule-box currency-rule" />
  <text x="150" y="220" text-anchor="middle" class="rule-title">BR-003</text>
  <text x="150" y="235" text-anchor="middle" class="rule-text">Three-Tier Rate Resolution</text>
  <text x="150" y="250" text-anchor="middle" class="rule-text">Bank → Cached → Hardcoded</text>
  <text x="150" y="265" text-anchor="middle" class="rule-text">fx.scala:151-162</text>

  <!-- BR-004: Cached Exchange Rate -->
  <rect x="270" y="200" width="200" height="80" class="rule-box currency-rule" />
  <text x="370" y="220" text-anchor="middle" class="rule-title">BR-004</text>
  <text x="370" y="235" text-anchor="middle" class="rule-text">Cached Exchange Rate Lookup</text>
  <text x="370" y="250" text-anchor="middle" class="rule-text">TTL-Based Caching</text>
  <text x="370" y="265" text-anchor="middle" class="rule-text">fx.scala:60-73</text>

  <!-- BR-005: Currency Decimal Places -->
  <rect x="160" y="300" width="200" height="80" class="rule-box currency-rule" />
  <text x="260" y="320" text-anchor="middle" class="rule-title">BR-005</text>
  <text x="260" y="335" text-anchor="middle" class="rule-text">Currency Decimal Places</text>
  <text x="260" y="350" text-anchor="middle" class="rule-text">ISO Standard Precision</text>
  <text x="260" y="365" text-anchor="middle" class="rule-text">Helper.scala:140-150</text>

  <!-- Transaction Limits & Controls (Top Right) -->
  <text x="550" y="90" class="category-title">Transaction Limits & Controls</text>

  <!-- BR-006: Counterparty Limits -->
  <rect x="550" y="100" width="220" height="80" class="rule-box limit-rule" />
  <text x="660" y="120" text-anchor="middle" class="rule-title">BR-006</text>
  <text x="660" y="135" text-anchor="middle" class="rule-text">Six-Dimensional Counterparty Limits</text>
  <text x="660" y="150" text-anchor="middle" class="rule-text">Amount + Count + Time Period</text>
  <text x="660" y="165" text-anchor="middle" class="rule-text">MappedCounterpartyLimit.scala:54-75</text>

  <!-- BR-007: Challenge Threshold -->
  <rect x="790" y="100" width="220" height="80" class="rule-box limit-rule" />
  <text x="900" y="120" text-anchor="middle" class="rule-title">BR-007</text>
  <text x="900" y="135" text-anchor="middle" class="rule-text">Challenge Threshold + FX</text>
  <text x="900" y="150" text-anchor="middle" class="rule-text">Dynamic Security Thresholds</text>
  <text x="900" y="165" text-anchor="middle" class="rule-text">LocalMappedConnector.scala:152-181</text>

  <!-- BR-008: Payment Limits -->
  <rect x="550" y="200" width="220" height="80" class="rule-box limit-rule" />
  <text x="660" y="220" text-anchor="middle" class="rule-title">BR-008</text>
  <text x="660" y="235" text-anchor="middle" class="rule-text">User Payment Limits</text>
  <text x="660" y="250" text-anchor="middle" class="rule-text">Attribute-Based Limits</text>
  <text x="660" y="265" text-anchor="middle" class="rule-text">LocalMappedConnector.scala:184-222</text>

  <!-- BR-009: Charge Level -->
  <rect x="790" y="200" width="220" height="80" class="rule-box limit-rule" />
  <text x="900" y="220" text-anchor="middle" class="rule-title">BR-009</text>
  <text x="900" y="235" text-anchor="middle" class="rule-text">Transaction Charge Level</text>
  <text x="900" y="250" text-anchor="middle" class="rule-text">Type-Based Multipliers</text>
  <text x="900" y="265" text-anchor="middle" class="rule-text">LocalMappedConnector.scala:522-567</text>

  <!-- Fee Calculations (Middle Left) -->
  <text x="50" y="430" class="category-title">Fee Calculations</text>

  <!-- BR-010: Product Fee Structure -->
  <rect x="50" y="440" width="200" height="80" class="rule-box fee-rule" />
  <text x="150" y="460" text-anchor="middle" class="rule-title">BR-010</text>
  <text x="150" y="475" text-anchor="middle" class="rule-text">Product Fee Structure</text>
  <text x="150" y="490" text-anchor="middle" class="rule-text">Multi-Dimensional Fees</text>
  <text x="150" y="505" text-anchor="middle" class="rule-text">MappedProductFeeProvider.scala:39-49</text>

  <!-- BR-011: ATM Fee Calculation -->
  <rect x="270" y="440" width="200" height="80" class="rule-box fee-rule" />
  <text x="370" y="460" text-anchor="middle" class="rule-title">BR-011</text>
  <text x="370" y="475" text-anchor="middle" class="rule-text">ATM Fee Calculation</text>
  <text x="370" y="490" text-anchor="middle" class="rule-text">Location + Type Based</text>
  <text x="370" y="505" text-anchor="middle" class="rule-text">CommonModelTrait.scala:214-220</text>

  <!-- Transaction Processing Logic (Middle Right) -->
  <text x="550" y="430" class="category-title">Transaction Processing Logic</text>

  <!-- BR-012: Credit/Debit Classification -->
  <rect x="550" y="440" width="220" height="80" class="rule-box transaction-rule" />
  <text x="660" y="460" text-anchor="middle" class="rule-title">BR-012</text>
  <text x="660" y="475" text-anchor="middle" class="rule-text">Credit/Debit Classification</text>
  <text x="660" y="490" text-anchor="middle" class="rule-text">Amount Sign + Event Triggers</text>
  <text x="660" y="505" text-anchor="middle" class="rule-text">MappedTransaction.scala:285-296</text>

  <!-- BR-013: Currency Unit Conversion -->
  <rect x="790" y="440" width="220" height="80" class="rule-box transaction-rule" />
  <text x="900" y="460" text-anchor="middle" class="rule-title">BR-013</text>
  <text x="900" y="475" text-anchor="middle" class="rule-text">Currency Unit Conversion</text>
  <text x="900" y="490" text-anchor="middle" class="rule-text">Smallest Units ↔ Decimal</text>
  <text x="900" y="505" text-anchor="middle" class="rule-text">Helper.scala:130-132, 157-161</text>

  <!-- BR-014: Balance Update -->
  <rect x="670" y="540" width="220" height="80" class="rule-box transaction-rule" />
  <text x="780" y="560" text-anchor="middle" class="rule-title">BR-014</text>
  <text x="780" y="575" text-anchor="middle" class="rule-text">Transaction Balance Update</text>
  <text x="780" y="590" text-anchor="middle" class="rule-text">Balance Recalculation + History</text>
  <text x="780" y="605" text-anchor="middle" class="rule-text">MappedTransaction.scala:111-112</text>

  <!-- Security & Access Control (Bottom Left) -->
  <text x="50" y="670" class="category-title">Security & Access Control</text>

  <!-- BR-015: View-Based Visibility -->
  <rect x="50" y="680" width="200" height="80" class="rule-box security-rule" />
  <text x="150" y="700" text-anchor="middle" class="rule-title">BR-015</text>
  <text x="150" y="715" text-anchor="middle" class="rule-text">View-Based Visibility</text>
  <text x="150" y="730" text-anchor="middle" class="rule-text">Permission-Based Access</text>
  <text x="150" y="745" text-anchor="middle" class="rule-text">View.scala:155-157</text>

  <!-- BR-016: Authentication Context -->
  <rect x="270" y="680" width="200" height="80" class="rule-box security-rule" />
  <text x="370" y="700" text-anchor="middle" class="rule-title">BR-016</text>
  <text x="370" y="715" text-anchor="middle" class="rule-text">Authentication Context</text>
  <text x="370" y="730" text-anchor="middle" class="rule-text">Risk-Based MFA</text>
  <text x="370" y="745" text-anchor="middle" class="rule-text">LocalMappedConnector.scala:232-250</text>

  <!-- Balance & Aggregation Logic (Bottom Right) -->
  <text x="550" y="670" class="category-title">Balance & Aggregation Logic</text>

  <!-- BR-017: Multi-Currency Balance Aggregation -->
  <rect x="550" y="680" width="220" height="80" class="rule-box balance-rule" />
  <text x="660" y="700" text-anchor="middle" class="rule-title">BR-017</text>
  <text x="660" y="715" text-anchor="middle" class="rule-text">Multi-Currency Aggregation</text>
  <text x="660" y="730" text-anchor="middle" class="rule-text">Cross-Currency Consolidation</text>
  <text x="660" y="745" text-anchor="middle" class="rule-text">LocalMappedConnector.scala:938-980</text>

  <!-- Critical Dependencies (Red Arrows) -->
  <!-- BR-001 → BR-002 -->
  <line x1="250" y1="140" x2="270" y2="140" class="critical-arrow" />
  
  <!-- BR-001 → BR-003 -->
  <line x1="150" y1="180" x2="150" y2="200" class="critical-arrow" />
  
  <!-- BR-002 → BR-006 -->
  <line x1="470" y1="140" x2="550" y2="140" class="critical-arrow" />
  
  <!-- BR-002 → BR-007 -->
  <line x1="470" y1="130" x2="790" y2="130" class="critical-arrow" />
  
  <!-- BR-002 → BR-017 -->
  <path d="M 470 160 Q 520 160 520 700 Q 520 720 550 720" class="critical-arrow" />
  
  <!-- BR-003 → BR-007 -->
  <path d="M 250 240 Q 520 240 520 140 Q 520 140 790 140" class="critical-arrow" />
  
  <!-- BR-005 → BR-013 -->
  <path d="M 360 340 Q 520 340 520 480 Q 520 480 790 480" class="critical-arrow" />
  
  <!-- BR-007 → BR-016 -->
  <path d="M 900 180 Q 900 400 900 600 Q 900 720 470 720" class="critical-arrow" />
  
  <!-- BR-012 → BR-014 -->
  <line x1="660" y1="520" x2="680" y2="540" class="critical-arrow" />
  
  <!-- BR-013 → BR-012 -->
  <path d="M 900 520 Q 900 530 780 530 Q 780 520 770 520" class="critical-arrow" />

  <!-- Secondary Dependencies (Gray Arrows) -->
  <!-- BR-004 → BR-003 -->
  <line x1="370" y1="280" x2="250" y2="240" class="dependency-arrow" />
  
  <!-- BR-005 → BR-010 -->
  <path d="M 260 380 Q 260 420 150 420 Q 150 440 150 440" class="dependency-arrow" />
  
  <!-- BR-005 → BR-011 -->
  <path d="M 260 380 Q 260 420 370 420 Q 370 440 370 440" class="dependency-arrow" />
  
  <!-- BR-006 → BR-012 -->
  <path d="M 660 180 Q 660 300 660 440" class="dependency-arrow" />
  
  <!-- BR-008 → BR-006 -->
  <line x1="660" y1="200" x2="660" y2="180" class="dependency-arrow" />
  
  <!-- BR-013 → BR-014 -->
  <line x1="900" y1="520" x2="890" y2="580" class="dependency-arrow" />
  
  <!-- BR-015 → BR-014 -->
  <path d="M 250 720 Q 500 720 500 580 Q 500 580 670 580" class="dependency-arrow" />

  <!-- Legend -->
  <rect x="1050" y="100" width="300" height="350" fill="#f8f9fa" stroke="#343a40" stroke-width="1" />
  <text x="1200" y="125" text-anchor="middle" class="category-title">Legend</text>
  
  <!-- Rule Categories -->
  <text x="1070" y="150" class="rule-text" font-weight="bold">Rule Categories:</text>
  <rect x="1070" y="160" width="15" height="15" class="currency-rule" />
  <text x="1095" y="172" class="rule-text">Currency Exchange (BR-001 to BR-005)</text>
  <rect x="1070" y="180" width="15" height="15" class="limit-rule" />
  <text x="1095" y="192" class="rule-text">Transaction Limits (BR-006 to BR-009)</text>
  <rect x="1070" y="200" width="15" height="15" class="fee-rule" />
  <text x="1095" y="212" class="rule-text">Fee Calculations (BR-010 to BR-011)</text>
  <rect x="1070" y="220" width="15" height="15" class="transaction-rule" />
  <text x="1095" y="232" class="rule-text">Transaction Processing (BR-012 to BR-014)</text>
  <rect x="1070" y="240" width="15" height="15" class="security-rule" />
  <text x="1095" y="252" class="rule-text">Security & Access (BR-015 to BR-016)</text>
  <rect x="1070" y="260" width="15" height="15" class="balance-rule" />
  <text x="1095" y="272" class="rule-text">Balance & Aggregation (BR-017)</text>
  
  <!-- Dependency Types -->
  <text x="1070" y="300" class="rule-text" font-weight="bold">Dependency Types:</text>
  <line x1="1070" y1="315" x2="1120" y2="315" class="critical-arrow" />
  <text x="1130" y="320" class="rule-text">Critical Dependencies</text>
  <line x1="1070" y1="335" x2="1120" y2="335" class="dependency-arrow" />
  <text x="1130" y="340" class="rule-text">Secondary Dependencies</text>
  
  <!-- Key Insights -->
  <text x="1070" y="370" class="rule-text" font-weight="bold">Key Insights:</text>
  <text x="1070" y="385" class="rule-text">• BR-001, BR-002, BR-003: Core FX handling</text>
  <text x="1070" y="400" class="rule-text">• BR-006, BR-007: Risk management</text>
  <text x="1070" y="415" class="rule-text">• BR-012, BR-013: Transaction processing</text>
  <text x="1070" y="430" class="rule-text">• 17 rules across 6 business domains</text>

  <!-- Analysis Summary -->
  <rect x="50" y="800" width="960" height="150" fill="#f8f9fa" stroke="#343a40" stroke-width="1" />
  <text x="530" y="825" text-anchor="middle" class="category-title">Business Rules Analysis Summary</text>
  
  <text x="70" y="850" class="rule-text" font-weight="bold">Core Business Logic Categories:</text>
  <text x="70" y="870" class="rule-text">1. Currency Exchange & Conversion (5 rules): Multi-tier FX rate resolution with 14-currency support and BigDecimal precision</text>
  <text x="70" y="885" class="rule-text">2. Transaction Limits & Controls (4 rules): Six-dimensional counterparty limits, dynamic challenge thresholds, payment controls</text>
  <text x="70" y="900" class="rule-text">3. Fee Calculations (2 rules): Product fee structures and ATM fee calculations with frequency-based pricing</text>
  <text x="70" y="915" class="rule-text">4. Transaction Processing Logic (3 rules): Credit/debit classification, currency unit conversion, balance updates</text>
  <text x="70" y="930" class="rule-text">5. Security & Access Control (2 rules): View-based visibility controls and risk-based authentication</text>
  <text x="70" y="945" class="rule-text">6. Balance & Aggregation Logic (1 rule): Multi-currency balance consolidation with FX conversion</text>

</svg>
